HIERARCHY
ROOT hip
{
  OFFSET 3.97563 81.3841 267.824
  CHANNELS 6 Xposition Yposition Zposition Zrotation Xrotation Yrotation
  JOINT abdomen
  {
    OFFSET 0 20.6881 -0.73152
    CHANNELS 3 Zrotation Xrotation Yrotation
    JOINT chest
    {
      OFFSET 0 11.7043 -0.48768
      CHANNELS 3 Zrotation Xrotation Yrotation
      JOINT neck
      {
        OFFSET 0 22.1894 -2.19456
        CHANNELS 3 Zrotation Xrotation Yrotation
        JOINT head
        {
          OFFSET -0.24384 7.07133 1.2192
          CHANNELS 3 Zrotation Xrotation Yrotation
          JOINT leftEye
          {
            OFFSET 4.14528 8.04674 8.04672
            CHANNELS 3 Zrotation Xrotation Yrotation
            End Site
            {
              OFFSET 1 0 0
            }
          }
          JOINT rightEye
          {
            OFFSET -3.6576 8.04674 8.04672
            CHANNELS 3 Zrotation Xrotation Yrotation
            End Site
            {
              OFFSET 1 0 0
            }
          }
        }
      }
      JOINT rCollar
      {
        OFFSET -2.68224 19.2634 -4.8768
        CHANNELS 3 Zrotation Xrotation Yrotation
        JOINT rShldr
        {
          OFFSET -8.77824 -1.95073 1.46304
          CHANNELS 3 Zrotation Xrotation Yrotation
          JOINT rForeArm
          {
            OFFSET -28.1742 -1.7115 0.48768
            CHANNELS 3 Zrotation Xrotation Yrotation
            JOINT rHand
            {
              OFFSET -22.5879 0.773209 7.07136
              CHANNELS 3 Zrotation Xrotation Yrotation
              JOINT rThumb1
              {
                OFFSET -1.2192 -0.487915 3.41376
                CHANNELS 3 Zrotation Xrotation Yrotation
                JOINT rThumb2
                {
                  OFFSET -3.37035 -0.52449 3.41376
                  CHANNELS 3 Zrotation Xrotation Yrotation
                  End Site
                  {
                    OFFSET -1.78271 -1.18214 1.43049
                  }
                }
              }
              JOINT rIndex1
              {
                OFFSET -7.75947 0.938293 5.60832
                CHANNELS 3 Zrotation Xrotation Yrotation
                JOINT rIndex2
                {
                  OFFSET -2.54057 -0.884171 1.56538
                  CHANNELS 3 Zrotation Xrotation Yrotation
                  End Site
                  {
                    OFFSET -1.62519 -0.234802 1.16502
                  }
                }
              }
              JOINT rMid1
              {
                OFFSET -8.24714 1.18213 3.41376
                CHANNELS 3 Zrotation Xrotation Yrotation
                JOINT rMid2
                {
                  OFFSET -3.10165 -0.590103 1.0647
                  CHANNELS 3 Zrotation Xrotation Yrotation
                  End Site
                  {
                    OFFSET -2.48547 -0.328903 0.83742
                  }
                }
              }
              JOINT rRing1
              {
                OFFSET -8.82822 0.546677 1.51678
                CHANNELS 3 Zrotation Xrotation Yrotation
                JOINT rRing2
                {
                  OFFSET -2.60934 -0.819778 -0.0198488
                  CHANNELS 3 Zrotation Xrotation Yrotation
                  End Site
                  {
                    OFFSET -2.33842 -0.294052 0.168128
                  }
                }
              }
              JOINT rPinky1
              {
                OFFSET -8.27202 -0.0477905 -0.4584
                CHANNELS 3 Zrotation Xrotation Yrotation
                JOINT rPinky2
                {
                  OFFSET -1.82734 -0.647385 -0.700984
                  CHANNELS 3 Zrotation Xrotation Yrotation
                  End Site
                  {
                    OFFSET -1.69225 -0.51767 -0.607171
                  }
                }
              }
            }
          }
        }
      }
      JOINT lCollar
      {
        OFFSET 2.68224 19.2634 -4.8768
        CHANNELS 3 Zrotation Xrotation Yrotation
        JOINT lShldr
        {
          OFFSET 8.77824 -1.95073 1.46304
          CHANNELS 3 Zrotation Xrotation Yrotation
          JOINT lForeArm
          {
            OFFSET 28.1742 -1.7115 0.48768
            CHANNELS 3 Zrotation Xrotation Yrotation
            JOINT lHand
            {
              OFFSET 22.5879 0.773209 7.07136
              CHANNELS 3 Zrotation Xrotation Yrotation
              JOINT lThumb1
              {
                OFFSET 1.2192 -0.487915 3.41376
                CHANNELS 3 Zrotation Xrotation Yrotation
                JOINT lThumb2
                {
                  OFFSET 3.37035 -0.52449 3.41376
                  CHANNELS 3 Zrotation Xrotation Yrotation
                  End Site
                  {
                    OFFSET 1.78271 -1.18214 1.43049
                  }
                }
              }
              JOINT lIndex1
              {
                OFFSET 7.75947 0.938293 5.60832
                CHANNELS 3 Zrotation Xrotation Yrotation
                JOINT lIndex2
                {
                  OFFSET 2.54057 -0.884171 1.56538
                  CHANNELS 3 Zrotation Xrotation Yrotation
                  End Site
                  {
                    OFFSET 1.62519 -0.234802 1.16502
                  }
                }
              }
              JOINT lMid1
              {
                OFFSET 8.24714 1.18213 3.41376
                CHANNELS 3 Zrotation Xrotation Yrotation
                JOINT lMid2
                {
                  OFFSET 3.10165 -0.590103 1.0647
                  CHANNELS 3 Zrotation Xrotation Yrotation
                  End Site
                  {
                    OFFSET 2.48547 -0.328903 0.83742
                  }
                }
              }
              JOINT lRing1
              {
                OFFSET 8.82822 0.546677 1.51678
                CHANNELS 3 Zrotation Xrotation Yrotation
                JOINT lRing2
                {
                  OFFSET 2.60934 -0.819778 -0.0198488
                  CHANNELS 3 Zrotation Xrotation Yrotation
                  End Site
                  {
                    OFFSET 2.33842 -0.294052 0.168128
                  }
                }
              }
              JOINT lPinky1
              {
                OFFSET 8.27202 -0.0477905 -0.4584
                CHANNELS 3 Zrotation Xrotation Yrotation
                JOINT lPinky2
                {
                  OFFSET 1.82734 -0.647385 -0.700984
                  CHANNELS 3 Zrotation Xrotation Yrotation
                  End Site
                  {
                    OFFSET 1.69225 -0.51767 -0.607171
                  }
                }
              }
            }
          }
        }
      }
    }
  }
  JOINT rButtock
  {
    OFFSET -8.77824 4.35084 1.2192
    CHANNELS 3 Zrotation Xrotation Yrotation
    JOINT rThigh
    {
      OFFSET 0 -1.70687 -2.19456
      CHANNELS 3 Zrotation Xrotation Yrotation
      JOINT rShin
      {
        OFFSET 0 -36.8199 0.73152
        CHANNELS 3 Zrotation Xrotation Yrotation
        JOINT rFoot
        {
          OFFSET 0.73152 -45.1104 -5.12064
          CHANNELS 3 Zrotation Xrotation Yrotation
          End Site
          {
            OFFSET -1.1221 -3.69964 12.103
          }
        }
      }
    }
  }
  JOINT lButtock
  {
    OFFSET 8.77824 4.35084 1.2192
    CHANNELS 3 Zrotation Xrotation Yrotation
    JOINT lThigh
    {
      OFFSET 0 -1.70687 -2.19456
      CHANNELS 3 Zrotation Xrotation Yrotation
      JOINT lShin
      {
        OFFSET 0 -36.8199 0.73152
        CHANNELS 3 Zrotation Xrotation Yrotation
        JOINT lFoot
        {
          OFFSET -0.73152 -45.1104 -5.12064
          CHANNELS 3 Zrotation Xrotation Yrotation
          End Site
          {
            OFFSET 1.1221 -3.69964 12.103
          }
        }
      }
    }
  }
}
MOTION
Frames:	6
Frame Time:	0.00833333
4.10215 83.9958 -91.6447 1.29231 0.0037166 -0.0242999 -1.70022 -0.00276352 -0.0463328 -0.469052 0.00196667 -0.0812255 -2.29329e-015 7.95139e-016 4.72114e-016 -7.15625e-015 9.54166e-015 1.38683e-015 -0 0 0 -0 0 0 -1.0454e-015 -7.2603e-017 3.47873e-016 -2.30755e-014 -1.11195e-015 5.76476e-015 -4.51042e-013 7.77248e-014 9.54166e-014 -5.07166e-012 -4.01992e-013 9.25541e-013 -1.199e-011 -7.12051e-013 2.20412e-012 -2.07213e-011 -1.23087e-012 3.80633e-012 -1.19843e-011 -7.11252e-013 2.19458e-012 7.73091 5.47488 0.417314 -1.19916e-011 -7.12444e-013 2.2073e-012 2.90554 0.965183 0.102902 -1.19815e-011 -7.11351e-013 2.20094e-012 10.2786 0.731801 0.0259123 -1.19984e-011 -7.08866e-013 2.2073e-012 2.22167 -0.733487 -0.20892 -1.14131e-015 -7.22147e-017 1.49089e-016 -2.66445e-014 -1.62134e-015 3.77691e-015 -4.34742e-013 -1.85665e-013 9.85972e-014 -5.08082e-012 -1.54853e-013 9.22361e-013 -1.19694e-011 -7.42773e-013 2.2073e-012 -2.06621e-011 -1.28176e-012 3.80712e-012 -1.19744e-011 -7.4425e-013 2.22003e-012 -7.73091 5.47488 -0.417314 -1.19687e-011 -7.4266e-013 2.2073e-012 -2.90554 0.965183 -0.102902 -1.19779e-011 -7.42361e-013 2.2073e-012 -10.2786 0.731801 -0.0259123 -1.19696e-011 -7.4266e-013 2.19458e-012 -2.22167 -0.733487 0.20892 -2.03217e-016 0 -3.88251e-019 -0.815255 -1.92421 -0.00353251 -0.00895454 -2.0786 -0.0737744 -0.474524 3.99777 0.134757 2.03217e-016 0 3.88251e-019 -1.77359 -6.84758 0.169533 -0.00326658 6.83969 -0.0864338 0.504716 0.00295186 -0.0573573 
2.56523 82.222 -91.3028 -0.731581 -0.449303 -0.855529 0.620199 3.53853 0.111739 -0.22319 -2.06034 0.0523498 -0.646759 0.07641 -0.825966 0.130073 -0.211484 -1.45693 -0 0 0 -0 0 0 1.17089e-013 1.27066e-014 5.62518e-014 21.7644 2.381 1.50628 -3.56901 -1.51042 5.68974 0.00187435 1.02148 0.143489 -1.33242e-009 1.25824e-009 -5.56442e-011 -2.30222e-009 2.17559e-009 -8.97602e-011 -1.33241e-009 1.25824e-009 -5.56537e-011 7.73091 5.47488 0.417314 -1.33242e-009 1.25824e-009 -5.56409e-011 2.90554 0.965183 0.102902 -1.33241e-009 1.25824e-009 -5.56472e-011 10.2786 0.731801 0.0259123 -1.33242e-009 1.25825e-009 -5.5641e-011 2.22167 -0.733487 -0.20892 1.17027e-013 1.27073e-014 5.6086e-014 -21.1455 5.96289 -0.0676255 3.8107 -1.65732 -6.03006 -0.00464354 -1.51188 0.212214 -1.24501e-009 -1.25894e-009 -2.23635e-010 -2.15025e-009 -2.17665e-009 -3.90117e-010 -1.24501e-009 -1.25894e-009 -2.23627e-010 -7.73091 5.47488 -0.417314 -1.24501e-009 -1.25894e-009 -2.23636e-010 -2.90554 0.965183 -0.102902 -1.24501e-009 -1.25894e-009 -2.23638e-010 -10.2786 0.731801 -0.0259123 -1.245e-009 -1.25894e-009 -2.23651e-010 -2.22167 -0.733487 0.20892 -2.03217e-016 0 -3.88251e-019 3.23701 -4.85072 1.91659 0.0153664 7.05774 0.0749475 -0.588122 -0.616598 -1.11501 2.03217e-016 0 3.88251e-019 0.627641 -14.3015 0.760337 0.0435204 22.5272 -0.299217 0.45901 -0.0252603 -0.48273 
2.54198 82.1831 -90.4011 -2.88179 -0.934502 -1.71474 3.04493 7.28642 0.256537 0.060212 -4.24826 0.188215 -1.33137 0.16181 -1.69663 0.2584 -0.434734 -2.99155 -0 0 0 -0 0 0 2.5281e-013 2.69032e-014 1.22771e-013 44.6471 4.85404 3.08012 -7.0027 -3.04778 11.6941 -0.00192277 2.14144 0.300976 -2.84401e-009 2.72797e-009 -1.20594e-010 -4.91401e-009 4.71687e-009 -1.94793e-010 -2.84401e-009 2.72797e-009 -1.20604e-010 7.73091 5.47488 0.417314 -2.84402e-009 2.72797e-009 -1.20591e-010 2.90554 0.965183 0.102902 -2.84401e-009 2.72797e-009 -1.20597e-010 10.2786 0.731801 0.0259123 -2.84402e-009 2.72798e-009 -1.20591e-010 2.22167 -0.733487 -0.20892 2.52787e-013 2.69043e-014 1.22644e-013 -43.4737 12.2717 -0.151126 7.46959 -3.35306 -12.4327 0.00264798 -3.11323 0.437488 -2.6641e-009 -2.70758e-009 -4.70675e-010 -4.60127e-009 -4.68134e-009 -8.21163e-010 -2.66411e-009 -2.70758e-009 -4.70672e-010 -7.73091 5.47488 -0.417314 -2.6641e-009 -2.70757e-009 -4.70677e-010 -2.90554 0.965183 -0.102902 -2.6641e-009 -2.70757e-009 -4.7068e-010 -10.2786 0.731801 -0.0259123 -2.6641e-009 -2.70757e-009 -4.70694e-010 -2.22167 -0.733487 0.20892 -2.03217e-016 0 -3.88251e-019 7.73346 -7.97778 3.96432 -0.0122153 16.741 0.241208 -0.927837 -5.46791 -2.45134 2.03217e-016 0 3.88251e-019 3.3411 -22.1567 1.44289 0.258061 39.2241 -0.618979 0.405237 -0.03949 -0.983654 
2.5373 82.0746 -89.5156 -4.8188 -1.35418 -2.51861 5.2016 10.6208 0.434692 0.297505 -6.18485 0.321269 -1.93367 0.22904 -2.47792 0.357985 -0.632813 -4.37103 -0 0 0 -0 0 0 3.53357e-013 3.8265e-014 1.6806e-013 64.9155 7.12317 4.55013 -9.81968 -4.35284 17.1141 -0.0097444 3.06436 0.431015 -3.97327e-009 3.77615e-009 -1.71341e-010 -6.86523e-009 6.52922e-009 -2.76893e-010 -3.97327e-009 3.77615e-009 -1.7135e-010 7.73091 5.47488 0.417314 -3.97327e-009 3.77616e-009 -1.71337e-010 2.90554 0.965183 0.102902 -3.97326e-009 3.77615e-009 -1.71343e-010 10.2786 0.731801 0.0259123 -3.97327e-009 3.77616e-009 -1.71338e-010 2.22167 -0.733487 -0.20892 3.53363e-013 3.82664e-014 1.6796e-013 -63.3925 17.8886 -0.212029 10.4018 -4.75209 -18.1471 0.0197572 -4.5354 0.638421 -3.71108e-009 -3.77534e-009 -6.75321e-010 -6.40944e-009 -6.5274e-009 -1.17797e-009 -3.71109e-009 -3.77534e-009 -6.75322e-010 -7.73091 5.47488 -0.417314 -3.71108e-009 -3.77534e-009 -6.75324e-010 -2.90554 0.965183 -0.102902 -3.71108e-009 -3.77534e-009 -6.75328e-010 -10.2786 0.731801 -0.0259123 -3.71108e-009 -3.77534e-009 -6.75343e-010 -2.22167 -0.733487 0.20892 -2.03217e-016 0 -3.88251e-019 11.9381 -10.6576 5.83727 -0.0891335 25.3299 0.41001 -1.42483 -9.82594 -3.66755 2.03217e-016 0 3.88251e-019 5.95444 -29.1956 2.14646 0.715457 53.8978 -1.11595 0.36634 -0.0816653 -1.33348 
2.55592 81.9428 -88.5955 -6.19546 -1.61109 -3.18355 6.71589 12.9215 0.69215 0.400845 -7.49318 0.445706 -2.33549 0.251047 -3.03573 0.408282 -0.769498 -5.36244 -0 0 0 -0 0 0 3.65969e-013 4.25393e-014 1.6027e-013 78.8939 8.89894 5.7345 -11.7008 -5.24099 21.0322 -0.0150031 3.49481 0.49178 -4.14665e-009 3.77046e-009 -1.86578e-010 -7.16504e-009 6.51929e-009 -3.01664e-010 -4.14665e-009 3.77046e-009 -1.86587e-010 7.73091 5.47488 0.417314 -4.14666e-009 3.77046e-009 -1.86575e-010 2.90554 0.965183 0.102902 -4.14665e-009 3.77046e-009 -1.8658e-010 10.2786 0.731801 0.0259123 -4.14666e-009 3.77046e-009 -1.86575e-010 2.22167 -0.733487 -0.20892 3.6598e-013 4.25409e-014 1.60171e-013 -77.33 21.7759 -0.204723 12.2453 -5.62219 -22.0857 0.0373793 -5.50988 0.776783 -3.82778e-009 -3.89095e-009 -7.73982e-010 -6.61049e-009 -6.7269e-009 -1.34916e-009 -3.82778e-009 -3.89095e-009 -7.73985e-010 -7.73091 5.47488 -0.417314 -3.82777e-009 -3.89095e-009 -7.73985e-010 -2.90554 0.965183 -0.102902 -3.82777e-009 -3.89095e-009 -7.7399e-010 -10.2786 0.731801 -0.0259123 -3.82777e-009 -3.89095e-009 -7.74004e-010 -2.22167 -0.733487 0.20892 -2.03217e-016 0 -3.88251e-019 14.9763 -12.2625 7.19707 -0.176942 31.1832 0.546689 -1.88444 -12.971 -4.52347 2.03217e-016 0 3.88251e-019 7.93435 -34.2057 2.72762 1.3357 63.5168 -1.73312 0.365237 -0.193721 -1.30554 
2.53205 81.8763 -87.6385 -6.78559 -1.64306 -3.67781 7.35563 13.7764 1.07622 0.306354 -7.9151 0.562297 -2.46232 0.21327 -3.2839 0.398088 -0.825293 -5.8158 -0 0 0 -0 0 0 2.30732e-013 3.33972e-014 5.70174e-014 84.1727 9.99414 6.50694 -12.5294 -5.65809 22.8213 -0.0121026 3.2046 0.450821 -2.71727e-009 1.91704e-009 -1.24435e-010 -4.69587e-009 3.31432e-009 -1.99233e-010 -2.71728e-009 1.91704e-009 -1.24444e-010 7.73091 5.47488 0.417314 -2.71728e-009 1.91704e-009 -1.24432e-010 2.90554 0.965183 0.102902 -2.71727e-009 1.91704e-009 -1.24437e-010 10.2786 0.731801 0.0259123 -2.71728e-009 1.91704e-009 -1.24431e-010 2.22167 -0.733487 -0.20892 2.30712e-013 3.33986e-014 5.68757e-014 -82.912 23.2477 -0.104372 12.8678 -5.89576 -23.5012 0.0450956 -5.86103 0.826818 -2.3691e-009 -2.39545e-009 -7.50855e-010 -4.08977e-009 -4.14008e-009 -1.30588e-009 -2.36911e-009 -2.39545e-009 -7.50856e-010 -7.73091 5.47488 -0.417314 -2.3691e-009 -2.39545e-009 -7.50857e-010 -2.90554 0.965183 -0.102902 -2.3691e-009 -2.39545e-009 -7.50862e-010 -10.2786 0.731801 -0.0259123 -2.3691e-009 -2.39545e-009 -7.50874e-010 -2.22167 -0.733487 0.20892 -2.03217e-016 0 -3.88251e-019 16.2016 -12.3978 7.8038 -0.217908 33.2321 0.60584 -2.09329 -14.4521 -4.82124 2.03217e-016 0 3.88251e-019 8.85446 -36.4136 3.07548 1.59977 66.1266 -1.98238 0.428952 -0.434668 -0.682995 
